<svg width="25" height="24" viewBox="0 0 25 24" fill="none" xmlns="http://www.w3.org/2000/svg">
<g id="ic:round-phone">
<path id="Vector" d="M21.4323 16.2933L18.4686 15.9549C18.1202 15.914 17.7669 15.9526 17.4355 16.0678C17.1041 16.183 16.8031 16.3718 16.5551 16.62L14.4082 18.7669C11.0959 17.0823 8.40358 14.39 6.71897 11.0777L8.87755 8.91912C9.37928 8.4174 9.6243 7.71732 9.54263 7.00557L9.20426 4.06524C9.13811 3.49604 8.86494 2.97105 8.43678 2.59022C8.00861 2.20939 7.45535 1.99932 6.88233 2H4.86376C3.54528 2 2.44849 3.09679 2.53017 4.41528C3.14857 14.3797 11.1178 22.3373 21.0706 22.9557C22.3891 23.0374 23.4859 21.9406 23.4859 20.6221V18.6036C23.4975 17.4251 22.6108 16.4333 21.4323 16.2933Z" fill="white"/>
</g>
</svg>
